<svg version="1.1" id="Layer_1" xmlns="http://www.w3.org/2000/svg" xmlns:xlink="http://www.w3.org/1999/xlink" x="0px" y="0px"
	 width="100%" viewBox="0 0 828 828" enable-background="new 0 0 828 828" xml:space="preserve">
<path fill="#000000" opacity="1.000000" stroke="none" 
	d="
M457.000000,829.000000 
	C304.666718,829.000000 152.833420,829.000000 1.000102,829.000000 
	C1.000068,553.000122 1.000068,277.000244 1.000034,1.000287 
	C276.999786,1.000191 552.999573,1.000191 828.999512,1.000096 
	C828.999695,276.999725 828.999695,552.999451 828.999878,828.999573 
	C705.166687,829.000000 581.333313,829.000000 457.000000,829.000000 
M362.650940,366.510803 
	C362.650940,366.510803 362.628174,366.597626 362.565308,366.594208 
	C362.565308,366.594208 362.503937,366.608124 361.783020,366.390076 
	C358.488251,372.854401 355.193451,379.318756 351.286377,386.095795 
	C350.563629,387.750122 349.840881,389.404480 348.961609,391.406433 
	C348.961609,391.406433 348.944000,391.787231 348.315643,392.128265 
	C347.485291,394.060272 346.654938,395.992310 345.913635,397.933167 
	C345.913635,397.933167 345.883209,397.849030 345.278900,398.230743 
	C342.475525,404.143738 339.672180,410.056732 336.966064,415.967010 
	C336.966064,415.967010 336.950531,415.870941 336.404480,416.078430 
	C336.314758,416.426270 336.225037,416.774139 335.975281,417.430756 
	C335.975281,417.430756 335.959595,417.778198 335.348480,418.105743 
	C334.614258,419.734680 333.880035,421.363617 332.815704,423.607788 
	C331.182495,426.726196 329.549286,429.844604 327.325806,433.321442 
	C325.192993,437.465271 323.060181,441.609100 320.810364,445.980255 
	C319.359131,444.041016 318.215668,442.513000 317.000122,440.328979 
	C316.596100,439.576080 316.192108,438.823181 315.809723,437.410797 
	C315.214844,436.561249 314.619965,435.711700 313.997345,434.284180 
	C313.688141,433.849640 313.378967,433.415070 312.994171,432.246307 
	C307.027588,420.963379 301.061005,409.680450 295.165741,398.190552 
	C295.165741,398.190552 294.990540,398.059326 294.909210,397.391968 
	C294.247711,396.241852 293.586212,395.091766 292.945709,393.415436 
	C292.605072,393.019653 292.264435,392.623871 292.005310,392.093842 
	C292.005310,392.093842 291.897095,391.980042 291.837769,391.277863 
	C290.827698,389.412537 289.829346,387.540771 288.805634,385.682983 
	C282.619019,374.455475 276.426636,363.231171 270.020844,351.295135 
	C264.790588,341.951904 259.680847,332.537811 254.256027,323.308960 
	C252.644974,320.568146 250.148224,318.347961 248.039520,315.153656 
	C246.449463,312.349762 245.165024,309.294952 243.149765,306.840088 
	C242.019012,305.462708 239.679352,305.077698 237.884354,304.245575 
	C237.307068,306.135590 236.729782,308.025604 235.855835,310.686890 
	C234.704498,320.188232 233.553162,329.689575 232.176758,339.957245 
	C232.013107,342.283112 231.849472,344.608948 231.194519,347.374817 
	C231.196518,347.594604 231.198532,347.814423 231.027573,348.891113 
	C229.992020,358.917694 228.997406,368.948761 227.908890,378.969574 
	C226.908997,388.174713 225.893494,397.379639 224.730179,406.565094 
	C223.217178,418.511566 221.693832,430.460052 219.906067,442.367310 
	C218.487961,451.812653 216.649704,461.194519 215.029861,470.610077 
	C214.363113,474.485657 212.404999,476.683228 208.230453,477.116974 
	C204.751465,477.478424 201.347549,478.562561 197.910385,479.326630 
	C197.847916,479.969299 197.785461,480.612000 197.722992,481.254669 
	C199.819122,481.741943 201.915253,482.229218 204.919449,482.950714 
	C210.611435,482.922180 216.303421,482.893646 222.747833,483.009613 
	C223.505661,482.952087 224.263489,482.894562 225.953598,482.955078 
	C234.967163,482.883240 243.980728,482.811401 253.728851,482.873016 
	C256.993286,481.604340 257.291504,480.050995 253.931656,478.616577 
	C250.701340,477.237396 247.338974,476.167480 243.637329,474.414917 
	C241.840912,473.574768 240.044495,472.734650 238.146759,470.975708 
	C238.053833,461.665344 237.960907,452.355011 238.079575,442.232971 
	C239.717758,428.144653 241.315765,414.051514 243.010605,399.970001 
	C243.894272,392.627930 244.948502,385.306427 246.261780,377.248566 
	C246.927094,373.070557 247.592407,368.892548 248.393921,363.859283 
	C250.913727,368.155884 252.933777,371.600342 255.003815,375.718597 
	C255.425217,376.501709 255.846619,377.284821 256.325470,378.760040 
	C264.165039,394.249756 272.004608,409.739502 279.888031,425.880524 
	C280.560089,426.928101 281.232117,427.975647 282.002899,429.744232 
	C284.986786,435.212372 287.970673,440.680511 291.145477,446.807648 
	C295.053314,452.874969 298.961182,458.942261 303.112427,465.612549 
	C304.027740,466.751434 304.943085,467.890289 306.098907,469.669952 
	C307.424896,471.402435 308.750885,473.134888 310.233124,475.545197 
	C311.266357,476.837463 312.314392,478.118225 313.330017,479.424194 
	C316.439545,483.422668 319.142914,483.290009 321.412628,478.861725 
	C326.332245,469.263580 331.158478,459.617615 336.537384,449.541443 
	C337.425598,447.606201 338.313843,445.670990 339.745514,443.384521 
	C340.526855,441.605530 341.308167,439.826569 342.700867,437.704407 
	C345.444519,432.136719 348.188171,426.569061 351.366150,420.467163 
	C353.582428,416.013824 355.798706,411.560486 358.640411,406.763275 
	C363.773499,396.873535 368.906586,386.983795 374.640625,376.762634 
	C376.114868,373.849640 377.589111,370.936615 378.999695,368.010773 
	C378.999695,368.010773 379.033417,368.066315 379.618103,367.721649 
	C380.640625,365.956055 381.663177,364.190430 382.860901,363.319244 
	C383.233704,365.901733 383.606506,368.484222 383.821777,371.655731 
	C384.064484,373.217896 384.307190,374.780029 384.651428,376.707916 
	C384.651428,376.707916 384.954224,376.936737 384.842438,377.469604 
	C384.880585,377.646576 384.918732,377.823517 384.766479,378.572235 
	C384.894928,380.046539 385.023376,381.520813 385.150513,383.692596 
	C385.343903,384.103699 385.537292,384.514801 385.743835,385.713928 
	C386.140137,389.321991 386.450470,392.942047 386.951141,396.535553 
	C387.904602,403.378876 388.966766,410.207031 389.970062,417.933197 
	C390.820801,428.653320 391.976776,439.360626 392.427551,450.097534 
	C392.801056,458.994446 392.343201,467.926300 392.036255,477.603607 
	C392.440704,482.118469 395.252899,482.750305 399.502869,481.927490 
	C399.672821,481.886749 399.842743,481.845978 400.685120,482.181702 
	C402.120392,482.389313 403.555664,482.596924 405.922363,482.925812 
	C413.612732,482.987885 421.303131,483.049927 429.161499,483.808319 
	C434.932129,489.604187 442.153656,484.321686 449.659454,487.701752 
	C448.774475,484.399506 448.310974,482.670013 447.883209,480.237122 
	C447.836548,479.537842 447.789886,478.838562 448.327637,477.707611 
	C450.212006,470.879852 444.984131,475.061218 442.676117,474.249359 
	C442.603943,472.609528 442.531189,470.956970 442.448883,469.087372 
	C438.779266,468.559631 433.605865,475.162506 432.547211,466.697021 
	C427.288574,468.677216 422.707764,467.027374 422.654266,463.072052 
	C422.593964,458.611145 423.190369,454.141296 423.486298,449.888916 
	C421.276489,448.863617 419.254303,447.925354 417.080261,446.151794 
	C415.016510,430.432983 412.952789,414.714172 410.978180,398.125214 
	C410.253143,389.442871 409.692200,380.742615 408.748260,372.084137 
	C408.061584,365.785400 406.868988,359.541840 405.985107,352.357605 
	C405.601776,348.908142 405.218475,345.458679 404.943939,341.399292 
	C404.655121,340.933868 404.366302,340.468414 403.998291,339.077484 
	C402.952118,327.782684 401.905975,316.487885 400.859802,305.193115 
	C400.254395,304.827179 399.648987,304.461243 399.043579,304.095306 
	C397.347870,305.392975 395.652161,306.690643 393.339539,308.143677 
	C392.587341,309.141052 391.835175,310.138428 390.604645,311.602509 
	C383.716309,324.392578 376.827972,337.182617 369.477844,350.455688 
	C368.586792,352.495453 367.695709,354.535217 366.288971,356.951141 
	C364.958679,359.641876 363.628387,362.332611 362.035217,365.340271 
	C361.861237,365.606110 361.882843,365.854462 362.270691,366.400330 
	C362.270691,366.400330 362.628113,366.423981 362.650940,366.510803 
M453.103546,492.277130 
	C453.187897,492.323151 453.272247,492.369171 453.356598,492.415161 
	C453.242676,492.272980 453.128754,492.130768 452.775208,491.446625 
	C451.966125,491.006775 451.175293,490.237000 450.344391,490.190948 
	C448.136078,490.068542 445.632568,490.947632 443.746765,490.187378 
	C439.124939,488.324188 435.893188,490.557251 432.603516,493.008667 
	C432.364990,493.186462 432.871887,494.364502 432.745392,495.704712 
	C425.123077,500.818909 424.630676,510.383850 431.693604,516.134277 
	C437.784271,521.093079 446.084503,521.391174 453.189819,516.906250 
	C457.857391,513.960144 459.580444,509.103882 457.999420,503.092407 
	C456.733215,498.277924 453.333893,495.369324 449.822205,493.076569 
	C450.877716,492.722565 451.933228,492.368561 453.103546,492.277130 
M549.911438,428.697144 
	C550.515198,429.501465 551.118896,430.305756 551.896179,431.859711 
	C555.007690,437.199585 555.285217,443.064423 554.625854,449.561615 
	C551.868469,458.829926 544.588318,463.733826 535.886414,468.028534 
	C529.270020,469.008026 522.567688,471.189056 516.054565,470.723541 
	C501.291870,469.668396 484.509125,459.795959 486.923340,441.423706 
	C487.058105,440.398254 485.447906,439.143524 484.649902,437.995514 
	C483.427765,439.005127 481.522095,439.790802 481.104889,441.064148 
	C479.523071,445.891998 477.864777,450.812317 477.277832,455.820282 
	C476.456299,462.829956 475.750427,470.158966 482.693176,476.124512 
	C485.825592,477.743134 488.958008,479.361786 492.530670,481.594574 
	C502.229523,484.605927 512.046509,485.048035 522.663330,483.089600 
	C523.117371,483.011688 523.571411,482.933777 524.654175,482.899963 
	C525.418274,482.563141 526.182373,482.226349 527.746033,482.023193 
	C535.847412,478.745880 543.948730,475.468567 552.712585,471.949493 
	C555.311523,470.193176 558.085022,468.645844 560.480042,466.645355 
	C572.494812,456.609589 580.740723,444.810242 578.010254,427.258972 
	C576.353210,423.168884 574.696106,419.078827 572.957153,414.299988 
	C571.679443,412.520355 570.401733,410.740692 568.955933,408.285156 
	C567.952759,406.981110 567.134094,405.465118 565.917603,404.406128 
	C554.922302,394.834656 543.979309,385.196594 532.773682,375.875458 
	C524.098694,368.659363 514.800964,362.143707 508.790314,352.248169 
	C501.317657,339.945618 504.713562,324.677429 517.090271,317.297974 
	C529.941406,309.635651 542.676086,311.504974 555.158264,319.730164 
	C557.503723,323.166870 559.849243,326.603546 562.214966,330.840820 
	C562.471985,332.283844 562.565796,333.781799 563.027954,335.155823 
	C563.587036,336.817810 564.457947,338.374939 565.193970,339.977478 
	C566.975647,338.914764 569.953796,338.161926 570.323669,336.733612 
	C571.646973,331.623383 572.086182,326.284149 573.027405,320.212646 
	C573.008118,316.477814 572.988831,312.742981 573.143921,308.200195 
	C573.516174,305.542419 572.304626,304.493744 569.698120,303.912659 
	C557.677917,301.233002 545.532837,300.349854 533.383362,302.111206 
	C522.452515,303.695801 511.553650,305.837524 501.260468,311.998688 
	C492.918427,317.023895 485.109650,322.582581 480.950256,332.787537 
	C477.140961,343.463470 479.398407,353.115967 486.045471,362.728851 
	C486.969788,364.038696 487.894104,365.348572 488.984772,367.276367 
	C495.425323,373.982910 501.660889,380.902161 508.350891,387.349884 
	C520.668335,399.221191 533.252930,410.815338 545.924377,423.128510 
	C547.206726,424.777588 548.489075,426.426666 549.911438,428.697144 
M407.791046,508.049652 
	C409.066376,507.826233 410.500580,507.901703 411.587708,507.324066 
	C415.023407,505.498474 417.471741,502.629852 416.733795,498.597168 
	C416.019684,494.695038 412.819183,493.797211 409.139160,493.951569 
	C405.229218,494.115509 401.307037,493.988403 397.248138,493.988403 
	C400.476013,496.090851 401.267090,514.865112 398.530029,519.677490 
	C401.361237,519.677490 404.240295,519.677490 406.905396,519.677490 
	C406.171539,518.405945 405.495728,517.235046 405.377716,515.735718 
	C405.088715,514.447388 404.799713,513.159119 404.344330,511.232849 
	C404.437988,510.810394 404.531677,510.387939 405.304321,509.944702 
	C405.871399,509.362732 406.438477,508.780762 407.791046,508.049652 
M205.284943,516.367004 
	C204.824890,517.519836 204.364838,518.672729 203.893082,519.854858 
	C206.395493,519.854858 208.710815,519.854858 211.141861,519.854858 
	C206.651962,514.446960 210.047958,509.247559 210.482742,502.877808 
	C214.367844,509.288239 217.563919,514.561768 221.195450,520.553833 
	C224.844376,514.134888 227.965271,508.644806 231.789322,501.917755 
	C232.443680,508.710938 232.964386,514.116394 233.496887,519.644409 
	C236.105530,519.644409 238.614044,519.644409 240.771927,519.644409 
	C233.595673,512.076721 237.801285,501.627930 233.862839,492.536133 
	C229.786789,499.765015 225.947479,506.574066 221.949554,513.664368 
	C217.585663,506.287170 213.628387,499.597351 209.671112,492.907532 
	C209.278137,493.016144 208.885147,493.124756 208.492157,493.233337 
	C207.552551,500.702850 206.612946,508.172333 205.284943,516.367004 
M475.338013,510.872772 
	C476.577667,507.306213 478.940247,509.231171 480.414551,510.237823 
	C482.276459,511.509064 483.776642,513.414185 485.170868,515.245422 
	C488.437134,519.535645 492.524506,521.111145 496.709076,519.933777 
	C492.637970,516.361023 488.175293,512.444641 483.628113,508.454102 
	C484.622345,507.274902 485.235626,506.848907 485.414001,506.285309 
	C486.314880,503.438324 488.458435,499.965790 487.540253,497.854828 
	C486.660797,495.832916 482.663391,494.601501 479.850067,494.126984 
	C476.177948,493.507599 472.322449,493.975342 468.044098,493.975342 
	C471.251190,496.150085 472.238007,512.477844 469.989929,519.794189 
	C471.960236,519.794189 473.847778,519.794189 476.044495,519.794189 
	C475.785553,516.958374 475.549591,514.374573 475.338013,510.872772 
M313.990265,497.547150 
	C310.288452,503.000336 309.811127,509.035919 312.761993,513.078735 
	C317.301300,519.297791 324.158356,521.414734 332.081238,519.042969 
	C338.991882,516.974243 342.336456,513.253784 342.419922,507.542419 
	C342.515411,501.009186 338.998871,495.383911 332.759979,493.578369 
	C326.292938,491.706848 320.085785,493.089874 313.990265,497.547150 
M255.963608,498.896606 
	C255.963608,505.823914 255.963608,512.751221 255.963608,519.736450 
	C270.212646,520.700745 270.468933,520.628174 270.580750,516.599304 
	C267.842102,516.785095 263.671509,518.195129 262.495331,516.895386 
	C260.507690,514.698914 260.414948,510.787720 259.138916,506.211151 
	C263.546021,507.162750 266.200500,507.735901 268.895020,508.317719 
	C269.146973,507.105225 269.452087,505.636841 269.748627,504.209747 
	C266.539642,504.444733 263.659943,504.655609 260.495697,504.887299 
	C260.495697,501.518921 260.495697,498.803040 260.495697,495.084229 
	C263.698273,495.794281 266.432861,496.400543 269.705658,497.126160 
	C269.770050,496.249847 269.873871,494.837128 269.954498,493.740021 
	C264.197113,493.740021 258.956818,493.740021 253.919662,493.740021 
	C254.712341,495.394501 255.338120,496.700684 255.963608,498.896606 
M558.144226,493.948547 
	C551.928772,493.948547 545.713318,493.948547 539.161499,493.948547 
	C538.957397,494.772339 538.595154,496.234253 538.334412,497.286713 
	C541.792114,496.715027 545.138428,496.161774 549.268311,495.478943 
	C548.126709,504.142944 550.421509,512.079956 547.748352,519.762329 
	C550.599121,519.762329 553.471252,519.762329 555.578674,519.762329 
	C551.583801,512.213074 554.641113,504.149719 553.332581,495.367340 
	C557.456787,496.216583 560.571411,496.857941 563.705383,497.503296 
	C563.705383,496.429199 563.705383,494.895142 563.705383,493.437897 
	C561.939636,493.634491 560.493225,493.795502 558.144226,493.948547 
M519.811462,519.896729 
	C520.135681,519.703979 520.459961,519.511230 520.784180,519.318481 
	C520.657776,519.230530 520.498230,519.167664 520.410034,519.050842 
	C519.610657,517.991028 518.174805,516.942810 518.139465,515.851868 
	C517.925720,509.257599 518.033142,502.652954 518.033142,495.318634 
	C521.770996,496.186890 524.855957,496.903503 528.064697,497.648865 
	C527.971680,496.458527 527.850830,494.911346 527.743408,493.536499 
	C519.606873,493.536499 511.942322,493.536499 503.848602,493.536499 
	C503.559418,494.642517 503.175018,496.112549 502.950592,496.970856 
	C506.441101,496.549072 509.633881,496.163269 512.463196,495.821411 
	C512.463196,504.323151 512.463196,512.039429 512.463196,519.920044 
	C514.237793,519.920044 516.716064,519.920044 519.811462,519.896729 
M382.844330,512.965820 
	C383.516144,516.350159 381.024292,517.953064 378.694305,517.761047 
	C376.036407,517.541931 373.511078,515.713989 371.135101,514.675659 
	C370.587128,519.418762 371.280212,520.333923 376.685394,519.972473 
	C378.587860,519.845215 380.578156,519.281677 382.294250,518.440002 
	C387.829102,515.725586 388.481934,511.811829 384.092896,507.570587 
	C381.834686,505.388367 379.065674,503.722443 376.890717,501.472137 
	C375.972931,500.522552 375.221588,498.143005 375.764191,497.346924 
	C376.588531,496.137390 378.742432,494.956848 380.083496,495.190155 
	C381.917542,495.509155 383.518951,497.165833 385.577820,498.476959 
	C385.577820,496.688843 385.577820,494.924835 385.577820,492.977203 
	C383.404358,492.977203 381.207245,492.434814 379.471375,493.098633 
	C376.541718,494.218903 372.789032,495.515991 371.545288,497.877747 
	C370.747314,499.392975 373.463379,503.238220 375.265381,505.515991 
	C377.294495,508.080841 380.066406,510.058075 382.844330,512.965820 
M283.979431,500.737701 
	C283.945740,507.092682 283.912079,513.447632 283.879364,519.618042 
	C288.225891,519.618042 293.976471,519.618042 299.837036,519.618042 
	C300.109924,517.714478 300.348175,516.052490 300.586426,514.390503 
	C300.235901,514.155579 299.885406,513.920654 299.534882,513.685730 
	C299.148071,514.407349 298.901062,515.606384 298.350098,515.767761 
	C295.973083,516.463989 293.291901,517.638855 291.157745,517.052185 
	C289.964935,516.724365 289.157227,513.324280 289.000671,511.246460 
	C288.676025,506.937988 288.771942,502.581909 288.975861,498.258667 
	C289.041901,496.858887 289.984283,495.500488 290.518280,494.142273 
	C287.729462,494.142273 284.615936,494.142273 282.619843,494.142273 
	C283.067322,496.005676 283.523499,497.905273 283.979431,500.737701 
z"/>
<path fill="#F6F5F9" opacity="1.000000" stroke="none" 
	d="
M555.074707,449.019653 
	C555.285217,443.064423 555.007690,437.199585 552.140259,431.337830 
	C553.542603,429.297882 556.017273,427.150208 555.642029,426.365692 
	C553.470520,421.825653 552.901062,415.972046 546.874634,413.686401 
	C540.492554,407.244263 534.267639,401.099121 527.930298,394.737457 
	C527.616821,394.250610 527.356079,394.063049 526.886475,393.658936 
	C517.468262,384.375397 507.840790,375.722748 499.090546,366.258972 
	C495.062927,361.903015 490.899323,361.515045 485.887482,362.054626 
	C479.398407,353.115967 477.140961,343.463470 481.448181,332.464355 
	C484.135193,332.095947 487.492798,332.943207 488.321228,331.858643 
	C493.199280,325.472076 497.488312,318.635590 501.975769,311.950684 
	C511.553650,305.837524 522.452515,303.695801 533.383362,302.111206 
	C545.532837,300.349854 557.677917,301.233002 569.698120,303.912659 
	C572.304626,304.493744 573.516174,305.542419 572.789368,308.810120 
	C568.907776,311.622223 565.150940,313.538788 561.934143,316.126678 
	C559.773987,317.864563 555.930054,315.034454 554.981506,319.075867 
	C542.676086,311.504974 529.941406,309.635651 517.090271,317.297974 
	C504.713562,324.677429 501.317657,339.945618 508.790314,352.248169 
	C514.800964,362.143707 524.098694,368.659363 532.773682,375.875458 
	C543.979309,385.196594 554.922302,394.834656 565.917603,404.406128 
	C567.134094,405.465118 567.952759,406.981110 568.686157,408.682739 
	C564.846802,415.032013 561.121399,420.899780 557.833069,427.003082 
	C557.138611,428.292114 558.087463,430.440704 558.204956,432.198212 
	C558.475403,436.242767 558.799866,440.288147 558.892944,444.337982 
	C558.928955,445.904053 558.398621,447.483154 558.098083,449.291748 
	C558.069824,449.527191 557.979736,449.992828 557.670776,449.969910 
	C556.599426,449.637878 555.837036,449.328766 555.074707,449.019653 
M555.579468,435.515167 
	C555.579468,435.515167 555.475403,435.575439 555.579468,435.515167 
z"/>
<path fill="#E4C047" opacity="1.000000" stroke="none" 
	d="
M248.057312,315.889221 
	C250.148224,318.347961 252.644974,320.568146 254.256027,323.308960 
	C259.680847,332.537811 264.790588,341.951904 269.816101,351.640900 
	C269.403442,351.989410 269.195557,351.992188 268.797058,351.748169 
	C263.080566,350.031860 260.338470,351.677826 260.719574,357.865509 
	C260.837799,359.785156 259.942291,362.353668 258.583588,363.662140 
	C255.214600,366.906342 254.584488,370.652527 255.054062,374.950073 
	C255.020554,374.981537 254.953827,375.044800 254.953827,375.044800 
	C252.933777,371.600342 250.913727,368.155884 248.393921,363.859283 
	C247.592407,368.892548 246.927094,373.070557 245.889801,377.499481 
	C245.269333,377.546600 245.100815,377.290222 245.024506,376.592438 
	C245.141418,373.977448 245.246078,371.751312 245.359238,369.344116 
	C242.604141,372.621979 240.471954,374.960510 238.574448,377.476074 
	C236.919418,379.670135 234.533096,381.930054 234.202225,384.393555 
	C233.058044,392.912292 232.735718,401.538605 231.952728,410.110443 
	C231.733475,412.510773 231.247360,414.948547 230.458740,417.221710 
	C228.970306,421.512115 230.252213,423.925873 234.984879,425.353760 
	C234.994614,426.110077 234.998627,426.542267 234.644791,427.052551 
	C233.859222,430.040527 233.803329,433.067993 232.927856,435.836273 
	C230.989014,441.966888 225.304749,446.726440 226.269836,453.951599 
	C221.889709,455.770294 221.458511,459.711578 220.772034,463.673492 
	C220.613708,464.587311 218.994461,465.248016 218.031952,465.607025 
	C218.672440,462.351898 219.597870,459.546173 219.931732,456.671783 
	C220.779678,449.371643 221.090561,442.002716 222.105713,434.729645 
	C224.578476,417.013458 227.549286,399.364960 229.875809,381.630981 
	C231.075485,372.486450 231.328003,363.217621 232.359009,354.042389 
	C237.051971,356.921326 240.464218,357.754395 245.110184,353.233032 
	C253.319107,345.244324 256.038940,332.448212 250.247498,322.832184 
	C250.638245,322.134399 250.796234,321.601227 250.935028,320.739075 
	C250.287231,319.935211 249.658646,319.460388 249.021790,318.992371 
	C249.013504,318.999176 249.008698,318.980652 248.893341,318.765015 
	C248.570404,318.283447 248.306076,318.098694 247.988022,317.643768 
	C248.013123,316.824677 248.035217,316.356934 248.057312,315.889221 
z"/>
<path fill="#BA961B" opacity="1.000000" stroke="none" 
	d="
M268.987640,351.994995 
	C269.195557,351.992188 269.403442,351.989410 269.923737,351.996216 
	C276.426636,363.231171 282.619019,374.455475 288.805634,385.682983 
	C289.829346,387.540771 290.827698,389.412537 291.548035,391.631653 
	C290.832764,391.968231 290.407196,391.950958 289.772644,391.665161 
	C286.914093,389.349762 285.509308,390.196198 283.874725,393.026764 
	C279.719238,400.222778 277.540100,407.685577 278.999390,416.000427 
	C279.000000,416.000000 279.000793,415.998779 278.733215,416.227295 
	C278.925140,419.380280 279.384674,422.304749 279.844208,425.229218 
	C272.004608,409.739502 264.165039,394.249756 256.486145,378.369843 
	C256.646851,377.979645 257.035675,377.961578 257.336609,378.122986 
	C259.577820,380.315918 261.518036,382.347382 264.294525,385.254395 
	C264.435455,382.822662 264.413513,381.056091 264.674988,379.332581 
	C264.905792,377.811127 265.012360,375.945557 265.934814,374.909607 
	C270.366486,369.932800 271.165894,364.232544 269.947144,357.610596 
	C269.598785,355.486420 269.293213,353.740723 268.987640,351.994995 
z"/>
<path fill="#BA961B" opacity="1.000000" stroke="none" 
	d="
M385.730713,384.925903 
	C385.537292,384.514801 385.343903,384.103699 385.366699,383.090210 
	C385.692749,381.401489 385.802643,380.315155 386.297791,379.145569 
	C387.747559,377.262543 389.042999,375.558716 389.837952,373.646790 
	C394.001129,363.633881 397.998840,353.552032 402.195312,343.553467 
	C402.510773,342.801788 403.929352,342.513123 404.835144,342.009216 
	C405.218475,345.458679 405.601776,348.908142 405.828400,353.181641 
	C404.806274,358.162750 404.136139,362.373596 403.012146,366.459595 
	C402.149841,369.594269 400.611450,372.536102 399.557770,375.626465 
	C397.691559,381.099976 400.066162,386.045532 402.346283,390.632629 
	C404.235046,394.432404 407.393463,397.601074 410.006775,401.483093 
	C410.683624,409.934357 411.343048,417.951935 411.647461,425.938354 
	C408.986847,422.819366 406.899750,419.533264 404.322632,416.691559 
	C400.738098,412.738983 396.847321,409.013367 390.768982,408.562195 
	C390.384949,406.917114 390.229034,405.619202 389.955597,404.346558 
	C388.564087,397.869415 387.142059,391.398804 385.730713,384.925903 
z"/>
<path fill="#CCCBD0" opacity="1.000000" stroke="none" 
	d="
M557.979736,449.992828 
	C557.979736,449.992828 558.069824,449.527191 558.447449,449.194183 
	C559.242981,448.024689 559.820740,447.230377 560.054443,446.345245 
	C562.850403,435.757141 565.595154,425.155518 568.241089,414.988739 
	C570.605957,414.988739 571.822510,414.988739 573.039062,414.988739 
	C574.696106,419.078827 576.353210,423.168884 577.586548,427.693848 
	C575.687988,429.624420 573.733521,430.874359 572.819519,432.657623 
	C568.377869,441.323669 564.340332,450.196838 559.902039,458.864746 
	C557.556274,463.445953 554.684448,467.757782 552.050110,472.191284 
	C543.948730,475.468567 535.847412,478.745880 527.139282,481.734436 
	C525.696899,481.915710 524.861145,482.385773 524.025452,482.855835 
	C523.571411,482.933777 523.117371,483.011688 522.250061,482.624817 
	C520.316956,481.787415 518.801575,481.114777 517.276550,481.092072 
	C508.882507,480.967102 500.486053,481.000977 492.090454,480.980408 
	C488.958008,479.361786 485.825592,477.743134 482.958588,475.713379 
	C490.918457,472.418976 498.590668,475.138336 506.196716,475.711792 
	C516.273499,476.471558 526.294250,478.816895 536.387024,473.968994 
	C538.351746,473.630646 540.291016,473.743591 541.418701,472.841736 
	C547.666992,467.844879 554.156616,462.981140 557.004517,454.996429 
	C557.000000,455.000000 556.993530,455.008514 557.266907,454.754364 
	C557.686768,452.997742 557.833252,451.495300 557.979736,449.992828 
z"/>
<path fill="#F6F5F9" opacity="1.000000" stroke="none" 
	d="
M535.986877,473.951691 
	C526.294250,478.816895 516.273499,476.471558 506.196716,475.711792 
	C498.590668,475.138336 490.918457,472.418976 482.714355,475.400330 
	C475.750427,470.158966 476.456299,462.829956 477.277832,455.820282 
	C477.864777,450.812317 479.523071,445.891998 481.104889,441.064148 
	C481.522095,439.790802 483.427765,439.005127 484.649902,437.995514 
	C485.447906,439.143524 487.058105,440.398254 486.923340,441.423706 
	C484.509125,459.795959 501.291870,469.668396 516.054565,470.723541 
	C522.567688,471.189056 529.270020,469.008026 536.367432,468.422424 
	C536.561279,470.528107 536.274048,472.239899 535.986877,473.951691 
z"/>
<path fill="#E4C047" opacity="1.000000" stroke="none" 
	d="
M374.039673,377.094055 
	C368.906586,386.983795 363.773499,396.873535 358.279846,406.606445 
	C357.176300,405.191467 356.433350,403.933319 355.422638,402.221771 
	C353.226135,404.865875 351.732452,406.050354 351.075745,407.591492 
	C349.959534,410.210907 349.149536,412.603851 345.463104,411.263031 
	C345.153290,411.150330 344.018585,412.815887 343.548218,413.790894 
	C343.179413,414.555206 343.245575,415.529388 343.118500,416.410339 
	C342.072693,415.950073 341.026886,415.489807 340.126404,414.693115 
	C342.142242,408.854095 344.012726,403.351562 345.883240,397.849030 
	C345.883209,397.849030 345.913635,397.933167 346.207825,397.803406 
	C347.316010,395.711487 348.130005,393.749359 348.943970,391.787231 
	C348.944000,391.787231 348.961609,391.406433 349.429871,391.197998 
	C350.564941,389.254059 351.231812,387.518555 351.898682,385.783081 
	C355.193451,379.318756 358.488251,372.854401 362.261597,366.875488 
	C362.982056,368.431274 363.223907,369.501678 363.465759,370.572083 
	C365.484436,369.253204 365.976624,367.199860 367.275482,366.093628 
	C368.682556,364.895172 370.791229,364.281891 372.686737,363.960419 
	C374.704224,363.618225 376.830444,363.916840 378.934082,364.349304 
	C378.983795,365.864075 379.008606,366.965179 379.033417,368.066315 
	C379.033417,368.066315 378.999695,368.010773 378.681580,368.062134 
	C376.922180,371.106995 375.480927,374.100525 374.039673,377.094055 
z"/>
<path fill="#BA961B" opacity="1.000000" stroke="none" 
	d="
M302.869019,465.009583 
	C298.961182,458.942261 295.053314,452.874969 291.420532,446.388489 
	C300.154480,444.307892 308.613373,442.646454 317.072235,440.985016 
	C318.215668,442.513000 319.359131,444.041016 320.810364,445.980255 
	C323.060181,441.609100 325.192993,437.465271 327.825684,433.348999 
	C330.470642,432.791656 332.615784,432.206757 335.117065,431.524780 
	C336.683228,425.227448 343.964508,424.347961 348.252838,420.183441 
	C348.576141,419.869476 350.012756,420.701904 350.931854,421.001404 
	C348.188171,426.569061 345.444519,432.136719 342.162659,437.612671 
	C339.152405,438.707062 336.553497,439.687073 334.230774,441.115967 
	C325.453064,446.515808 316.623596,451.855560 308.135773,457.686798 
	C305.803864,459.288849 304.593842,462.523895 302.869019,465.009583 
z"/>
<path fill="#E1B82F" opacity="1.000000" stroke="none" 
	d="
M317.036194,440.656982 
	C308.613373,442.646454 300.154480,444.307892 291.325073,446.059021 
	C287.970673,440.680511 284.986786,435.212372 282.273315,429.229858 
	C282.893951,427.873962 283.763916,426.812347 283.515015,426.224579 
	C280.588135,419.312836 283.045410,412.563629 284.127991,405.832916 
	C284.530609,403.329742 286.055817,401.004913 287.084412,398.605286 
	C288.039612,396.376923 289.015076,394.157227 289.981628,391.933685 
	C290.407196,391.950958 290.832764,391.968231 291.577698,391.982758 
	C291.897095,391.980042 292.005310,392.093842 291.942017,392.432678 
	C291.929901,393.132599 291.981140,393.493744 292.041443,394.194977 
	C293.030518,395.709839 294.010529,396.884583 294.990540,398.059326 
	C294.990540,398.059326 295.165741,398.190552 295.105408,398.756287 
	C293.360107,404.388641 291.948303,409.567871 289.918304,414.492249 
	C287.587830,420.145447 288.682312,429.358063 293.096344,432.363159 
	C294.837738,433.548706 297.629669,433.111877 299.894073,433.629120 
	C302.616547,434.251038 305.286560,435.102509 308.386353,435.968262 
	C308.538635,433.118652 308.612152,431.742767 308.674896,430.568695 
	C310.329285,431.476593 311.699524,432.228577 313.069763,432.980530 
	C313.378967,433.415070 313.688141,433.849640 313.976013,434.886780 
	C314.565796,436.349670 315.176941,437.209961 315.788086,438.070282 
	C316.192108,438.823181 316.596100,439.576080 317.036194,440.656982 
z"/>
<path fill="#E4C047" opacity="1.000000" stroke="none" 
	d="
M393.956451,307.988342 
	C395.652161,306.690643 397.347870,305.392975 399.043579,304.095306 
	C399.648987,304.461243 400.254395,304.827179 400.859802,305.193115 
	C401.905975,316.487885 402.952118,327.782684 403.774994,339.341919 
	C402.971100,338.606842 402.390503,337.607300 402.081390,337.075104 
	C399.067047,343.172882 394.982544,348.894348 393.453156,355.232330 
	C391.871948,361.784973 388.987061,366.942963 384.401855,371.409149 
	C384.303192,371.251099 383.979340,371.066711 383.979340,371.066711 
	C383.606506,368.484222 383.233704,365.901733 382.530762,362.760681 
	C381.137024,362.144501 380.073425,362.086853 379.011505,361.648315 
	C379.373230,360.576447 379.627991,359.799408 380.110809,359.208832 
	C382.803894,355.914642 386.565948,353.071198 388.068390,349.315826 
	C391.097473,341.744659 392.977112,333.705200 395.178192,325.816315 
	C395.836243,323.457794 395.572052,320.795197 396.449890,318.553680 
	C398.869263,312.376099 399.019867,312.435089 396.223419,307.138550 
	C395.453735,307.427063 394.705109,307.707703 393.956451,307.988342 
z"/>
<path fill="#E4C047" opacity="1.000000" stroke="none" 
	d="
M313.031982,432.613403 
	C311.699524,432.228577 310.329285,431.476593 308.674896,430.568695 
	C308.612152,431.742767 308.538635,433.118652 308.386353,435.968262 
	C305.286560,435.102509 302.616547,434.251038 299.894073,433.629120 
	C297.629669,433.111877 294.837738,433.548706 293.096344,432.363159 
	C288.682312,429.358063 287.587830,420.145447 289.918304,414.492249 
	C291.948303,409.567871 293.360107,404.388641 295.069763,398.859772 
	C301.061005,409.680450 307.027588,420.963379 313.031982,432.613403 
z"/>
<path fill="#C6A323" opacity="1.000000" stroke="none" 
	d="
M235.002640,426.974457 
	C234.998627,426.542267 234.994614,426.110077 235.271027,425.074768 
	C235.670151,417.098785 235.825272,409.726196 235.876404,402.352905 
	C235.886459,400.904419 234.893143,399.194794 235.386749,398.045441 
	C238.432159,390.954010 241.770950,383.988586 245.012238,376.981293 
	C245.100815,377.290222 245.269333,377.546600 245.721741,377.863007 
	C244.948502,385.306427 243.894272,392.627930 243.010605,399.970001 
	C241.315765,414.051514 239.717758,428.144653 237.727066,442.889343 
	C234.940414,449.772430 232.418365,455.966553 230.095520,462.234497 
	C227.499847,469.238708 223.162216,474.754730 216.593460,478.328094 
	C215.700623,478.813812 214.174805,478.135956 213.069748,477.729736 
	C216.286743,476.394562 217.254623,474.078369 217.335709,470.971191 
	C219.533142,467.868561 224.257156,469.075012 225.628525,464.466583 
	C228.002655,456.488556 232.190872,449.048981 234.546112,441.067200 
	C235.833405,436.704559 234.922318,431.693237 235.002640,426.974457 
z"/>
<path fill="#CCCBD0" opacity="1.000000" stroke="none" 
	d="
M527.035828,393.958252 
	C527.356079,394.063049 527.616821,394.250610 527.919067,395.103363 
	C529.099365,397.042572 530.148438,398.424683 531.263916,399.750977 
	C533.872192,402.852203 536.560974,405.887085 539.115662,409.031372 
	C540.141846,410.294464 540.587463,412.278229 541.841919,413.060211 
	C545.550354,415.371796 545.751892,418.837677 545.726196,422.524994 
	C533.252930,410.815338 520.668335,399.221191 508.350891,387.349884 
	C501.660889,380.902161 495.425323,373.982910 489.030640,366.640503 
	C489.647217,365.855621 490.485626,365.384674 490.749695,365.604279 
	C499.014893,372.477966 507.123077,379.544250 515.489319,386.290771 
	C519.070496,389.178558 523.171204,391.421997 527.035828,393.958252 
z"/>
<path fill="#BA961B" opacity="1.000000" stroke="none" 
	d="
M398.978851,481.908508 
	C395.252899,482.750305 392.440704,482.118469 392.460510,477.134583 
	C393.230011,475.429169 393.575195,474.192749 394.275757,472.935425 
	C406.899689,463.216797 413.297180,450.668121 413.352173,435.213196 
	C414.440857,441.139801 415.035492,446.809204 416.153992,452.373322 
	C417.135834,457.257477 418.704956,462.023590 419.866943,467.174866 
	C415.288422,470.281952 410.778656,472.939606 406.456116,475.873199 
	C403.814941,477.665741 401.461517,479.882355 398.978851,481.908508 
z"/>
<path fill="#EEEDEE" opacity="1.000000" stroke="none" 
	d="
M205.479156,516.004395 
	C206.612946,508.172333 207.552551,500.702850 208.492157,493.233337 
	C208.885147,493.124756 209.278137,493.016144 209.671112,492.907532 
	C213.628387,499.597351 217.585663,506.287170 221.949554,513.664368 
	C225.947479,506.574066 229.786789,499.765015 233.862839,492.536133 
	C237.801285,501.627930 233.595673,512.076721 240.771927,519.644409 
	C238.614044,519.644409 236.105530,519.644409 233.496887,519.644409 
	C232.964386,514.116394 232.443680,508.710938 231.789322,501.917755 
	C227.965271,508.644806 224.844376,514.134888 221.195450,520.553833 
	C217.563919,514.561768 214.367844,509.288239 210.482742,502.877808 
	C210.047958,509.247559 206.651962,514.446960 211.141861,519.854858 
	C208.710815,519.854858 206.395493,519.854858 203.893082,519.854858 
	C204.364838,518.672729 204.824890,517.519836 205.479156,516.004395 
z"/>
<path fill="#F5E9C6" opacity="1.000000" stroke="none" 
	d="
M336.022919,449.991180 
	C331.158478,459.617615 326.332245,469.263580 321.412628,478.861725 
	C319.142914,483.290009 316.439545,483.422668 313.330017,479.424194 
	C312.314392,478.118225 311.266357,476.837463 310.319702,474.910187 
	C311.455841,471.240875 311.842957,467.709106 313.678436,465.265015 
	C319.332916,457.735840 327.174103,453.039490 336.022919,449.991180 
z"/>
<path fill="#E1B82F" opacity="1.000000" stroke="none" 
	d="
M393.648010,308.066040 
	C394.705109,307.707703 395.453735,307.427063 396.223419,307.138550 
	C399.019867,312.435089 398.869263,312.376099 396.449890,318.553680 
	C395.572052,320.795197 395.836243,323.457794 395.178192,325.816315 
	C392.977112,333.705200 391.097473,341.744659 388.068390,349.315826 
	C386.565948,353.071198 382.803894,355.914642 380.110809,359.208832 
	C379.627991,359.799408 379.373230,360.576447 379.003967,361.966431 
	C378.966248,363.088898 378.937714,363.512299 378.909180,363.935669 
	C376.830444,363.916840 374.704224,363.618225 372.686737,363.960419 
	C370.791229,364.281891 368.682556,364.895172 367.275482,366.093628 
	C365.976624,367.199860 365.484436,369.253204 363.465759,370.572083 
	C363.223907,369.501678 362.982056,368.431274 362.622070,366.984497 
	C362.503937,366.608124 362.565308,366.594208 362.778076,366.629700 
	C362.869965,366.584778 362.749023,366.504364 362.628113,366.423981 
	C362.628113,366.423981 362.270691,366.400330 362.411682,366.144836 
	C362.685760,365.536560 362.600891,365.247894 362.298065,365.023346 
	C363.628387,362.332611 364.958679,359.641876 366.752869,357.096436 
	C367.813477,357.474304 368.553619,358.061005 368.985199,357.886108 
	C375.109070,355.404602 381.665894,353.445648 384.896301,346.852692 
	C386.666656,343.239563 388.772797,339.648834 389.709503,335.800232 
	C391.443207,328.676910 395.872284,321.695892 391.884888,313.670776 
	C391.612061,312.626678 391.347534,311.881256 391.083008,311.135803 
	C391.835175,310.138428 392.587341,309.141052 393.648010,308.066040 
z"/>
<path fill="#F6F5F9" opacity="1.000000" stroke="none" 
	d="
M552.381348,472.070374 
	C554.684448,467.757782 557.556274,463.445953 559.902039,458.864746 
	C564.340332,450.196838 568.377869,441.323669 572.819519,432.657623 
	C573.733521,430.874359 575.687988,429.624420 577.497314,428.082703 
	C580.740723,444.810242 572.494812,456.609589 560.480042,466.645355 
	C558.085022,468.645844 555.311523,470.193176 552.381348,472.070374 
z"/>
<path fill="#C6A323" opacity="1.000000" stroke="none" 
	d="
M248.048416,315.521423 
	C248.035217,316.356934 248.013123,316.824677 248.094391,317.867523 
	C248.402695,318.720520 248.673019,318.899841 249.008698,318.980652 
	C249.008698,318.980652 249.013504,318.999176 248.914658,319.241638 
	C249.528610,320.012085 250.241409,320.540100 250.954224,321.068115 
	C250.796234,321.601227 250.638245,322.134399 249.849426,322.917419 
	C248.808594,324.818817 248.262466,326.450165 248.013824,328.125671 
	C247.245453,333.303223 246.774307,338.531342 245.829285,343.673981 
	C245.157059,347.331940 242.881882,349.539551 238.803940,348.983734 
	C236.859894,348.718781 234.928528,348.360931 232.969757,347.773590 
	C232.917236,347.323029 232.886383,347.144012 232.881012,346.537964 
	C232.871048,343.928650 232.835602,341.746368 233.194717,339.418213 
	C234.396927,339.351532 235.219757,339.357605 236.009811,339.521606 
	C241.986237,340.762207 242.971176,339.974304 242.996643,333.790253 
	C243.013672,329.655457 243.028976,325.519989 242.973755,321.385742 
	C242.905441,316.271332 239.996658,312.805634 236.152496,309.915619 
	C236.729782,308.025604 237.307068,306.135590 237.884369,304.245575 
	C239.679352,305.077698 242.019012,305.462708 243.149765,306.840088 
	C245.165024,309.294952 246.449463,312.349762 248.048416,315.521423 
z"/>
<path fill="#BA961B" opacity="1.000000" stroke="none" 
	d="
M212.942078,477.996887 
	C214.174805,478.135956 215.700623,478.813812 216.593460,478.328094 
	C223.162216,474.754730 227.499847,469.238708 230.095520,462.234497 
	C232.418365,455.966553 234.940414,449.772430 237.621277,443.295197 
	C237.960907,452.355011 238.053833,461.665344 237.833511,471.490662 
	C234.387253,474.140472 231.238190,476.252228 228.126862,478.418213 
	C226.055145,479.860413 224.037338,481.380096 221.995407,482.865112 
	C216.303421,482.893646 210.611435,482.922180 204.635864,482.545654 
	C207.215546,480.759399 210.078812,479.378143 212.942078,477.996887 
z"/>
<path fill="#D2BA66" opacity="1.000000" stroke="none" 
	d="
M213.069763,477.729767 
	C210.078812,479.378143 207.215546,480.759399 204.181824,482.428558 
	C201.915253,482.229218 199.819122,481.741943 197.722992,481.254669 
	C197.785461,480.612000 197.847916,479.969299 197.910385,479.326630 
	C201.347549,478.562561 204.751465,477.478424 208.230453,477.116974 
	C212.404999,476.683228 214.363113,474.485657 215.029861,470.610077 
	C216.649704,461.194519 218.487961,451.812653 219.906067,442.367310 
	C221.693832,430.460052 223.217178,418.511566 224.730179,406.565094 
	C225.893494,397.379639 226.908997,388.174713 227.908890,378.969574 
	C228.997406,368.948761 229.992020,358.917694 231.338364,348.690125 
	C231.785706,349.325439 231.922256,350.161774 232.047241,351.373993 
	C232.026596,352.501587 232.017532,353.253265 232.008469,354.004974 
	C231.328003,363.217621 231.075485,372.486450 229.875809,381.630981 
	C227.549286,399.364960 224.578476,417.013458 222.105713,434.729645 
	C221.090561,442.002716 220.779678,449.371643 219.931732,456.671783 
	C219.597870,459.546173 218.672440,462.351898 217.978134,465.970154 
	C217.620270,468.178192 217.300644,469.604980 216.981018,471.031738 
	C217.254623,474.078369 216.286743,476.394562 213.069763,477.729767 
z"/>
<path fill="#E1B82F" opacity="1.000000" stroke="none" 
	d="
M409.989319,401.049347 
	C407.393463,397.601074 404.235046,394.432404 402.346283,390.632629 
	C400.066162,386.045532 397.691559,381.099976 399.557770,375.626465 
	C400.611450,372.536102 402.149841,369.594269 403.012146,366.459595 
	C404.136139,362.373596 404.806274,358.162750 405.786804,353.639648 
	C406.868988,359.541840 408.061584,365.785400 408.748260,372.084137 
	C409.692200,380.742615 410.253143,389.442871 410.721924,398.758850 
	C410.306885,399.944763 410.148102,400.497040 409.989319,401.049347 
z"/>
<path fill="#EEEDEE" opacity="1.000000" stroke="none" 
	d="
M475.325836,511.331787 
	C475.549591,514.374573 475.785553,516.958374 476.044495,519.794189 
	C473.847778,519.794189 471.960236,519.794189 469.989929,519.794189 
	C472.238007,512.477844 471.251190,496.150085 468.044098,493.975342 
	C472.322449,493.975342 476.177948,493.507599 479.850067,494.126984 
	C482.663391,494.601501 486.660797,495.832916 487.540253,497.854828 
	C488.458435,499.965790 486.314880,503.438324 485.414001,506.285309 
	C485.235626,506.848907 484.622345,507.274902 483.628113,508.454102 
	C488.175293,512.444641 492.637970,516.361023 496.709076,519.933777 
	C492.524506,521.111145 488.437134,519.535645 485.170868,515.245422 
	C483.776642,513.414185 482.276459,511.509064 480.414551,510.237823 
	C478.940247,509.231171 476.577667,507.306213 475.325836,511.331787 
M483.019775,498.680573 
	C481.023010,497.229462 479.026245,495.778351 475.988892,493.571014 
	C475.988892,499.235443 475.988892,502.944824 475.988892,506.630280 
	C483.224731,507.361633 484.716797,505.845184 483.019775,498.680573 
z"/>
<path fill="#EEEDEE" opacity="1.000000" stroke="none" 
	d="
M449.019012,493.330383 
	C453.333893,495.369324 456.733215,498.277924 457.999420,503.092407 
	C459.580444,509.103882 457.857391,513.960144 453.189819,516.906250 
	C446.084503,521.391174 437.784271,521.093079 431.693604,516.134277 
	C424.630676,510.383850 425.123077,500.818909 433.281799,495.336792 
	C438.885132,494.422729 443.952057,493.876556 449.019012,493.330383 
M440.139709,517.926147 
	C441.134094,517.937866 442.128479,517.960938 443.122833,517.959290 
	C448.748779,517.950012 452.547668,515.480957 453.821747,511.013245 
	C455.343018,505.678711 453.051727,499.234222 448.674500,496.536133 
	C444.291565,493.834534 438.119019,494.504974 434.479553,497.967682 
	C428.566223,503.593811 430.761597,513.563538 440.139709,517.926147 
z"/>
<path fill="#E1B82F" opacity="1.000000" stroke="none" 
	d="
M351.148987,420.734283 
	C350.012756,420.701904 348.576141,419.869476 348.252838,420.183441 
	C343.964508,424.347961 336.683228,425.227448 335.117065,431.524780 
	C332.615784,432.206757 330.470642,432.791656 328.120789,433.169769 
	C329.549286,429.844604 331.182495,426.726196 333.322083,423.294434 
	C337.535553,422.474304 336.156677,419.884216 335.959595,417.778198 
	C335.959595,417.778198 335.975281,417.430756 336.269287,417.124359 
	C336.692383,416.502289 336.821442,416.186615 336.950531,415.870941 
	C336.950531,415.870941 336.966064,415.967010 337.234009,415.874084 
	C338.328308,415.530640 339.154694,415.280121 339.981079,415.029572 
	C341.026886,415.489807 342.072693,415.950073 343.118500,416.410339 
	C343.245575,415.529388 343.179413,414.555206 343.548218,413.790894 
	C344.018585,412.815887 345.153290,411.150330 345.463104,411.263031 
	C349.149536,412.603851 349.959534,410.210907 351.075745,407.591492 
	C351.732452,406.050354 353.226135,404.865875 355.422638,402.221771 
	C356.433350,403.933319 357.176300,405.191467 357.967102,406.778381 
	C355.798706,411.560486 353.582428,416.013824 351.148987,420.734283 
z"/>
<path fill="#EEEDEE" opacity="1.000000" stroke="none" 
	d="
M314.259644,497.277283 
	C320.085785,493.089874 326.292938,491.706848 332.759979,493.578369 
	C338.998871,495.383911 342.515411,501.009186 342.419922,507.542419 
	C342.336456,513.253784 338.991882,516.974243 332.081238,519.042969 
	C324.158356,521.414734 317.301300,519.297791 312.761993,513.078735 
	C309.811127,509.035919 310.288452,503.000336 314.259644,497.277283 
M325.779785,517.966797 
	C326.277863,517.969727 326.776062,517.981995 327.273956,517.974182 
	C333.725586,517.872620 337.654510,514.502258 337.977997,508.795441 
	C338.386780,501.584198 334.561096,495.880463 328.746704,495.032349 
	C322.112854,494.064667 316.510132,497.533295 315.161438,503.520325 
	C314.165802,507.940033 317.404480,516.824036 325.779785,517.966797 
z"/>
<path fill="#9B7F20" opacity="1.000000" stroke="none" 
	d="
M390.843811,311.369141 
	C391.347534,311.881256 391.612061,312.626678 391.593262,313.841675 
	C390.612915,315.952606 389.668182,317.535309 389.263397,319.245819 
	C387.795807,325.447601 386.922455,331.819702 385.050476,337.888611 
	C382.676819,345.583923 375.802887,350.155548 369.939636,349.972687 
	C376.827972,337.182617 383.716309,324.392578 390.843811,311.369141 
z"/>
<path fill="#9B7F20" opacity="1.000000" stroke="none" 
	d="
M236.004166,310.301270 
	C239.996658,312.805634 242.905441,316.271332 242.973755,321.385742 
	C243.028976,325.519989 243.013672,329.655457 242.996643,333.790253 
	C242.971176,339.974304 241.986237,340.762207 236.009811,339.521606 
	C235.219757,339.357605 234.396927,339.351532 233.092743,339.325287 
	C232.596222,339.378235 232.401840,339.190918 232.401825,339.190918 
	C233.553162,329.689575 234.704498,320.188232 236.004166,310.301270 
z"/>
<path fill="#EEEDEE" opacity="1.000000" stroke="none" 
	d="
M255.963760,498.451721 
	C255.338120,496.700684 254.712341,495.394501 253.919662,493.740021 
	C258.956818,493.740021 264.197113,493.740021 269.954498,493.740021 
	C269.873871,494.837128 269.770050,496.249847 269.705658,497.126160 
	C266.432861,496.400543 263.698273,495.794281 260.495697,495.084229 
	C260.495697,498.803040 260.495697,501.518921 260.495697,504.887299 
	C263.659943,504.655609 266.539642,504.444733 269.748627,504.209747 
	C269.452087,505.636841 269.146973,507.105225 268.895020,508.317719 
	C266.200500,507.735901 263.546021,507.162750 259.138916,506.211151 
	C260.414948,510.787720 260.507690,514.698914 262.495331,516.895386 
	C263.671509,518.195129 267.842102,516.785095 270.580750,516.599304 
	C270.468933,520.628174 270.212646,520.700745 255.963608,519.736450 
	C255.963608,512.751221 255.963608,505.823914 255.963760,498.451721 
z"/>
<path fill="#C6A323" opacity="1.000000" stroke="none" 
	d="
M369.708740,350.214172 
	C375.802887,350.155548 382.676819,345.583923 385.050476,337.888611 
	C386.922455,331.819702 387.795807,325.447601 389.263397,319.245819 
	C389.668182,317.535309 390.612915,315.952606 391.601562,314.140350 
	C395.872284,321.695892 391.443207,328.676910 389.709503,335.800232 
	C388.772797,339.648834 386.666656,343.239563 384.896301,346.852692 
	C381.665894,353.445648 375.109070,355.404602 368.985199,357.886108 
	C368.553619,358.061005 367.813477,357.474304 367.010712,356.908325 
	C367.695709,354.535217 368.586792,352.495453 369.708740,350.214172 
z"/>
<path fill="#E1B82F" opacity="1.000000" stroke="none" 
	d="
M302.990723,465.311066 
	C304.593842,462.523895 305.803864,459.288849 308.135773,457.686798 
	C316.623596,451.855560 325.453064,446.515808 334.230774,441.115967 
	C336.553497,439.687073 339.152405,438.707062 341.856995,437.784241 
	C341.308167,439.826569 340.526855,441.605530 339.093262,443.626343 
	C335.151215,445.955627 332.075989,448.560120 328.530457,450.031036 
	C318.915710,454.019928 311.805847,460.778229 305.858398,469.029175 
	C304.943085,467.890289 304.027740,466.751434 302.990723,465.311066 
z"/>
<path fill="#050506" opacity="1.000000" stroke="none" 
	d="
M417.232056,446.987122 
	C419.254303,447.925354 421.276489,448.863617 423.486298,449.888916 
	C423.190369,454.141296 422.593964,458.611145 422.654266,463.072052 
	C422.707764,467.027374 427.288574,468.677216 432.547211,466.697021 
	C433.605865,475.162506 438.779266,468.559631 442.448883,469.087372 
	C442.531189,470.956970 442.603943,472.609528 442.676117,474.249359 
	C444.984131,475.061218 450.212006,470.879852 447.647003,477.906464 
	C441.014648,476.696716 435.062927,475.288086 428.925720,473.642517 
	C428.190918,473.171906 427.641602,472.938232 426.935242,472.434967 
	C425.604950,471.355835 424.431732,470.546326 423.282990,469.358826 
	C421.282349,461.649567 419.257202,454.318359 417.232056,446.987122 
z"/>
<path fill="#EEEDEE" opacity="1.000000" stroke="none" 
	d="
M404.819885,516.064087 
	C405.495728,517.235046 406.171539,518.405945 406.905396,519.677490 
	C404.240295,519.677490 401.361237,519.677490 398.530029,519.677490 
	C401.267090,514.865112 400.476013,496.090851 397.248138,493.988403 
	C401.307037,493.988403 405.229218,494.115509 409.139160,493.951569 
	C412.819183,493.797211 416.019684,494.695038 416.733795,498.597168 
	C417.471741,502.629852 415.023407,505.498474 411.587708,507.324066 
	C410.500580,507.901703 409.066376,507.826233 406.975525,508.039551 
	C405.648468,508.674805 405.136902,509.320160 404.625336,509.965485 
	C404.531677,510.387939 404.437988,510.810394 404.302795,511.842255 
	C404.447479,513.655823 404.633698,514.859924 404.819885,516.064087 
M404.310028,500.659180 
	C404.310028,502.764923 404.310028,504.870697 404.310028,506.978180 
	C410.242950,506.884674 413.250763,504.779480 412.952332,501.095642 
	C412.632324,497.145020 409.642456,495.046173 404.569061,495.500061 
	C404.485168,496.882355 404.397827,498.320862 404.310028,500.659180 
z"/>
<path fill="#EEEDEE" opacity="1.000000" stroke="none" 
	d="
M558.595520,493.952545 
	C560.493225,493.795502 561.939636,493.634491 563.705383,493.437897 
	C563.705383,494.895142 563.705383,496.429199 563.705383,497.503296 
	C560.571411,496.857941 557.456787,496.216583 553.332581,495.367340 
	C554.641113,504.149719 551.583801,512.213074 555.578674,519.762329 
	C553.471252,519.762329 550.599121,519.762329 547.748352,519.762329 
	C550.421509,512.079956 548.126709,504.142944 549.268311,495.478943 
	C545.138428,496.161774 541.792114,496.715027 538.334412,497.286713 
	C538.595154,496.234253 538.957397,494.772339 539.161499,493.948547 
	C545.713318,493.948547 551.928772,493.948547 558.595520,493.952545 
z"/>
<path fill="#EEEDEE" opacity="1.000000" stroke="none" 
	d="
M519.502930,519.908386 
	C516.716064,519.920044 514.237793,519.920044 512.463196,519.920044 
	C512.463196,512.039429 512.463196,504.323151 512.463196,495.821411 
	C509.633881,496.163269 506.441101,496.549072 502.950592,496.970856 
	C503.175018,496.112549 503.559418,494.642517 503.848602,493.536499 
	C511.942322,493.536499 519.606873,493.536499 527.743408,493.536499 
	C527.850830,494.911346 527.971680,496.458527 528.064697,497.648865 
	C524.855957,496.903503 521.770996,496.186890 518.033142,495.318634 
	C518.033142,502.652954 517.925720,509.257599 518.139465,515.851868 
	C518.174805,516.942810 519.610657,517.991028 520.410034,519.050842 
	C520.498230,519.167664 520.657776,519.230530 520.784180,519.318481 
	C520.459961,519.511230 520.135681,519.703979 519.502930,519.908386 
z"/>
<path fill="#CCCBD0" opacity="1.000000" stroke="none" 
	d="
M555.069885,319.403015 
	C555.930054,315.034454 559.773987,317.864563 561.934143,316.126678 
	C565.150940,313.538788 568.907776,311.622223 572.702148,309.214081 
	C572.988831,312.742981 573.008118,316.477814 572.618103,320.668457 
	C568.870789,324.096283 565.532715,327.068268 562.194702,330.040253 
	C559.849243,326.603546 557.503723,323.166870 555.069885,319.403015 
z"/>
<path fill="#EEEDEE" opacity="1.000000" stroke="none" 
	d="
M382.679779,512.628357 
	C380.066406,510.058075 377.294495,508.080841 375.265381,505.515991 
	C373.463379,503.238220 370.747314,499.392975 371.545288,497.877747 
	C372.789032,495.515991 376.541718,494.218903 379.471375,493.098633 
	C381.207245,492.434814 383.404358,492.977203 385.577820,492.977203 
	C385.577820,494.924835 385.577820,496.688843 385.577820,498.476959 
	C383.518951,497.165833 381.917542,495.509155 380.083496,495.190155 
	C378.742432,494.956848 376.588531,496.137390 375.764191,497.346924 
	C375.221588,498.143005 375.972931,500.522552 376.890717,501.472137 
	C379.065674,503.722443 381.834686,505.388367 384.092896,507.570587 
	C388.481934,511.811829 387.829102,515.725586 382.294250,518.440002 
	C380.578156,519.281677 378.587860,519.845215 376.685394,519.972473 
	C371.280212,520.333923 370.587128,519.418762 371.135101,514.675659 
	C373.511078,515.713989 376.036407,517.541931 378.694305,517.761047 
	C381.024292,517.953064 383.516144,516.350159 382.679779,512.628357 
z"/>
<path fill="#DDDDE0" opacity="1.000000" stroke="none" 
	d="
M283.979553,500.271301 
	C283.523499,497.905273 283.067322,496.005676 282.619843,494.142273 
	C284.615936,494.142273 287.729462,494.142273 290.518280,494.142273 
	C289.984283,495.500488 289.041901,496.858887 288.975861,498.258667 
	C288.771942,502.581909 288.676025,506.937988 289.000671,511.246460 
	C289.157227,513.324280 289.964935,516.724365 291.157745,517.052185 
	C293.291901,517.638855 295.973083,516.463989 298.350098,515.767761 
	C298.901062,515.606384 299.148071,514.407349 299.534882,513.685730 
	C299.885406,513.920654 300.235901,514.155579 300.586426,514.390503 
	C300.348175,516.052490 300.109924,517.714478 299.837036,519.618042 
	C293.976471,519.618042 288.225891,519.618042 283.879364,519.618042 
	C283.912079,513.447632 283.945740,507.092682 283.979553,500.271301 
z"/>
<path fill="#C6A323" opacity="1.000000" stroke="none" 
	d="
M289.772675,391.665161 
	C289.015076,394.157227 288.039612,396.376923 287.084412,398.605286 
	C286.055817,401.004913 284.530609,403.329742 284.127991,405.832916 
	C283.045410,412.563629 280.588135,419.312836 283.515015,426.224579 
	C283.763916,426.812347 282.893951,427.873962 282.223938,428.869324 
	C281.232117,427.975647 280.560089,426.928101 279.866119,425.554871 
	C279.384674,422.304749 278.925140,419.380280 278.786896,416.360138 
	C279.190033,416.312225 279.271881,416.359955 279.353729,416.407715 
	C279.235413,416.272095 279.117096,416.136505 278.998779,416.000885 
	C277.540100,407.685577 279.719238,400.222778 283.874725,393.026764 
	C285.509308,390.196198 286.914093,389.349762 289.772675,391.665161 
z"/>
<path fill="#EEEDEE" opacity="1.000000" stroke="none" 
	d="
M572.998108,414.644348 
	C571.822510,414.988739 570.605957,414.988739 568.241089,414.988739 
	C565.595154,425.155518 562.850403,435.757141 560.054443,446.345245 
	C559.820740,447.230377 559.242981,448.024689 558.475708,448.958740 
	C558.398621,447.483154 558.928955,445.904053 558.892944,444.337982 
	C558.799866,440.288147 558.475403,436.242767 558.204956,432.198212 
	C558.087463,430.440704 557.138611,428.292114 557.833069,427.003082 
	C561.121399,420.899780 564.846802,415.032013 568.770264,409.020691 
	C570.401733,410.740692 571.679443,412.520355 572.998108,414.644348 
z"/>
<path fill="#E1B82F" opacity="1.000000" stroke="none" 
	d="
M384.500488,371.567200 
	C388.987061,366.942963 391.871948,361.784973 393.453156,355.232330 
	C394.982544,348.894348 399.067047,343.172882 402.081390,337.075104 
	C402.390503,337.607300 402.971100,338.606842 403.814575,339.804688 
	C404.366302,340.468414 404.655121,340.933868 404.889526,341.704254 
	C403.929352,342.513123 402.510773,342.801788 402.195312,343.553467 
	C397.998840,353.552032 394.001129,363.633881 389.837952,373.646790 
	C389.042999,375.558716 387.747559,377.262543 386.297852,378.873016 
	C385.934235,378.505280 385.955780,378.326874 385.877136,377.893433 
	C385.502716,377.404510 385.228485,377.170624 384.954224,376.936737 
	C384.954224,376.936737 384.651428,376.707916 384.692627,376.121643 
	C384.656036,374.212677 384.578278,372.889923 384.500488,371.567200 
z"/>
<path fill="#EEEDEE" opacity="1.000000" stroke="none" 
	d="
M536.387024,473.968994 
	C536.274048,472.239899 536.561279,470.528107 536.795898,468.454468 
	C544.588318,463.733826 551.868469,458.829926 554.850281,449.290649 
	C555.837036,449.328766 556.599426,449.637878 557.670715,449.969910 
	C557.833252,451.495300 557.686768,452.997742 557.217651,454.618042 
	C556.812500,454.687317 556.729980,454.638763 556.647522,454.590210 
	C556.768005,454.724426 556.888550,454.858643 557.009033,454.992859 
	C554.156616,462.981140 547.666992,467.844879 541.418701,472.841736 
	C540.291016,473.743591 538.351746,473.630646 536.387024,473.968994 
z"/>
<path fill="#CCCBD0" opacity="1.000000" stroke="none" 
	d="
M501.618103,311.974670 
	C497.488312,318.635590 493.199280,325.472076 488.321228,331.858643 
	C487.492798,332.943207 484.135193,332.095947 481.575317,332.093872 
	C485.109650,322.582581 492.918427,317.023895 501.618103,311.974670 
z"/>
<path fill="#ECD17D" opacity="1.000000" stroke="none" 
	d="
M305.978638,469.349548 
	C311.805847,460.778229 318.915710,454.019928 328.530457,450.031036 
	C332.075989,448.560120 335.151215,445.955627 338.821533,443.801941 
	C338.313843,445.670990 337.425598,447.606201 336.280151,449.766296 
	C327.174103,453.039490 319.332916,457.735840 313.678436,465.265015 
	C311.842957,467.709106 311.455841,471.240875 310.241577,474.571289 
	C308.750885,473.134888 307.424896,471.402435 305.978638,469.349548 
z"/>
<path fill="#DDDDE0" opacity="1.000000" stroke="none" 
	d="
M526.886475,393.658936 
	C523.171204,391.421997 519.070496,389.178558 515.489319,386.290771 
	C507.123077,379.544250 499.014893,372.477966 490.749695,365.604279 
	C490.485626,365.384674 489.647217,365.855621 488.947479,366.331543 
	C487.894104,365.348572 486.969788,364.038696 485.966492,362.391724 
	C490.899323,361.515045 495.062927,361.903015 499.090546,366.258972 
	C507.840790,375.722748 517.468262,384.375397 526.886475,393.658936 
z"/>
<path fill="#9B7F20" opacity="1.000000" stroke="none" 
	d="
M417.156158,446.569458 
	C419.257202,454.318359 421.282349,461.649567 422.940735,469.360168 
	C421.720856,468.773621 420.867798,467.807709 420.014709,466.841827 
	C418.704956,462.023590 417.135834,457.257477 416.153992,452.373322 
	C415.035492,446.809204 414.440857,441.139801 413.333923,434.813843 
	C412.700348,431.397522 412.351379,428.683502 412.002441,425.969482 
	C411.343048,417.951935 410.683624,409.934357 410.006775,401.483093 
	C410.148102,400.497040 410.306885,399.944763 410.677338,399.193909 
	C412.952789,414.714172 415.016510,430.432983 417.156158,446.569458 
z"/>
<path fill="#F6F5F9" opacity="1.000000" stroke="none" 
	d="
M562.204834,330.440552 
	C565.532715,327.068268 568.870789,324.096283 572.534302,321.077942 
	C572.086182,326.284149 571.646973,331.623383 570.323669,336.733612 
	C569.953796,338.161926 566.975647,338.914764 565.193970,339.977478 
	C564.457947,338.374939 563.587036,336.817810 563.027954,335.155823 
	C562.565796,333.781799 562.471985,332.283844 562.204834,330.440552 
z"/>
<path fill="#ECD17D" opacity="1.000000" stroke="none" 
	d="
M428.993500,483.111969 
	C421.303131,483.049927 413.612732,482.987885 405.653564,482.581482 
	C412.745758,477.813232 420.353912,475.514374 428.918243,478.778717 
	C431.816956,479.883636 434.995789,480.253510 437.984741,481.192566 
	C437.667664,481.829651 437.412476,482.233398 436.695312,482.694946 
	C433.820068,482.872498 431.406769,482.992249 428.993500,483.111969 
z"/>
<path fill="#E1B82F" opacity="1.000000" stroke="none" 
	d="
M419.866943,467.174866 
	C420.867798,467.807709 421.720856,468.773621 422.916199,469.738159 
	C424.431732,470.546326 425.604950,471.355835 426.896820,472.838989 
	C425.742493,474.197174 424.108612,475.766602 423.256714,475.419098 
	C418.620117,473.527588 414.707336,475.563782 410.704132,477.163025 
	C407.097717,478.603760 403.573303,480.249756 400.012695,481.805206 
	C399.842743,481.845978 399.672821,481.886749 399.240845,481.917999 
	C401.461517,479.882355 403.814941,477.665741 406.456116,475.873199 
	C410.778656,472.939606 415.288422,470.281952 419.866943,467.174866 
z"/>
<path fill="#DDDDE0" opacity="1.000000" stroke="none" 
	d="
M545.825317,422.826752 
	C545.751892,418.837677 545.550354,415.371796 541.841919,413.060211 
	C540.587463,412.278229 540.141846,410.294464 539.115662,409.031372 
	C536.560974,405.887085 533.872192,402.852203 531.263916,399.750977 
	C530.148438,398.424683 529.099365,397.042572 528.031372,395.319916 
	C534.267639,401.099121 540.492554,407.244263 546.904297,414.041992 
	C547.950623,415.863403 549.001282,416.938202 549.631897,418.219666 
	C551.216919,421.440460 552.257141,424.758240 549.771362,428.075775 
	C548.489075,426.426666 547.206726,424.777588 545.825317,422.826752 
z"/>
<path fill="#E4C047" opacity="1.000000" stroke="none" 
	d="
M244.034622,474.961731 
	C247.338974,476.167480 250.701340,477.237396 253.931656,478.616577 
	C257.291504,480.050995 256.993286,481.604340 253.071121,482.588196 
	C245.945282,480.149658 239.477707,478.655151 232.770447,481.509491 
	C231.636353,481.992096 230.203201,481.771942 228.985291,481.531677 
	C232.119415,479.787292 235.150284,478.326202 238.243271,477.011169 
	C240.124161,476.211456 242.100922,475.637238 244.034622,474.961731 
z"/>
<path fill="#D2BA66" opacity="1.000000" stroke="none" 
	d="
M393.920410,472.956299 
	C393.575195,474.192749 393.230011,475.429169 392.569214,476.754120 
	C392.343201,467.926300 392.801056,458.994446 392.427551,450.097534 
	C391.976776,439.360626 390.820801,428.653320 390.059357,417.538208 
	C390.148651,417.143188 390.311279,417.036774 390.491455,417.009216 
	C390.671600,416.981628 391.036041,416.972076 391.024384,417.372498 
	C391.661163,420.526459 392.309631,423.279938 392.959656,426.475220 
	C393.304260,436.277771 393.647278,445.638550 393.987122,455.453552 
	C393.986389,458.940552 393.988861,461.973328 393.983582,465.448730 
	C393.957367,468.246368 393.938873,470.601318 393.920410,472.956299 
z"/>
<path fill="#E4C047" opacity="1.000000" stroke="none" 
	d="
M400.348907,481.993469 
	C403.573303,480.249756 407.097717,478.603760 410.704132,477.163025 
	C414.707336,475.563782 418.620117,473.527588 423.256714,475.419098 
	C424.108612,475.766602 425.742493,474.197174 427.053894,473.108582 
	C427.641602,472.938232 428.190918,473.171906 428.899536,473.976318 
	C428.213104,478.619751 431.764435,477.016510 433.385712,477.941589 
	C434.990753,478.857391 436.497040,479.946289 438.046631,480.959259 
	C434.995789,480.253510 431.816956,479.883636 428.918243,478.778717 
	C420.353912,475.514374 412.745758,477.813232 405.187866,482.520874 
	C403.555664,482.596924 402.120392,482.389313 400.348907,481.993469 
z"/>
<path fill="#EEEDEE" opacity="1.000000" stroke="none" 
	d="
M492.310547,481.287476 
	C500.486053,481.000977 508.882507,480.967102 517.276550,481.092072 
	C518.801575,481.114777 520.316956,481.787415 521.908569,482.554443 
	C512.046509,485.048035 502.229523,484.605927 492.310547,481.287476 
z"/>
<path fill="#C6A323" opacity="1.000000" stroke="none" 
	d="
M437.984741,481.192566 
	C436.497040,479.946289 434.990753,478.857391 433.385712,477.941589 
	C431.764435,477.016510 428.213104,478.619751 429.085022,474.213287 
	C435.062927,475.288086 441.014648,476.696716 447.354797,478.122314 
	C447.789886,478.838562 447.836548,479.537842 447.556213,480.804321 
	C443.871887,481.793365 440.514557,482.215240 437.157288,482.637146 
	C437.412476,482.233398 437.667664,481.829651 437.984741,481.192566 
z"/>
<path fill="#C6A323" opacity="1.000000" stroke="none" 
	d="
M243.835968,474.688324 
	C242.100922,475.637238 240.124161,476.211456 238.243271,477.011169 
	C235.150284,478.326202 232.119415,479.787292 228.641571,481.564453 
	C227.154297,482.240356 226.087799,482.538696 225.021317,482.837036 
	C224.263489,482.894562 223.505661,482.952087 222.371613,482.937378 
	C224.037338,481.380096 226.055145,479.860413 228.126862,478.418213 
	C231.238190,476.252228 234.387253,474.140472 237.884155,471.950073 
	C240.044495,472.734650 241.840912,473.574768 243.835968,474.688324 
z"/>
<path fill="#050506" opacity="1.000000" stroke="none" 
	d="
M436.695312,482.694946 
	C440.514557,482.215240 443.871887,481.793365 447.538330,481.156006 
	C448.310974,482.670013 448.774475,484.399506 449.659454,487.701752 
	C442.153656,484.321686 434.932129,489.604187 429.077515,483.460144 
	C431.406769,482.992249 433.820068,482.872498 436.695312,482.694946 
z"/>
<path fill="#050506" opacity="1.000000" stroke="none" 
	d="
M449.420593,493.203491 
	C443.952057,493.876556 438.885132,494.422729 433.425171,495.023193 
	C432.871887,494.364502 432.364990,493.186462 432.603516,493.008667 
	C435.893188,490.557251 439.124939,488.324188 443.746765,490.187378 
	C445.632568,490.947632 448.136078,490.068542 450.344391,490.190948 
	C451.175293,490.237000 451.966125,491.006775 452.887695,491.723328 
	C453.000183,492.000000 452.988770,492.014557 452.988770,492.014526 
	C451.933228,492.368561 450.877716,492.722565 449.420593,493.203491 
z"/>
<path fill="#9B7F20" opacity="1.000000" stroke="none" 
	d="
M385.737274,385.319916 
	C387.142059,391.398804 388.564087,397.869415 389.955597,404.346558 
	C390.229034,405.619202 390.384949,406.917114 390.754608,408.978210 
	C390.713226,412.180969 390.512268,414.608856 390.311279,417.036774 
	C390.311279,417.036774 390.148651,417.143188 390.066223,417.092346 
	C388.966766,410.207031 387.904602,403.378876 386.951141,396.535553 
	C386.450470,392.942047 386.140137,389.321991 385.737274,385.319916 
z"/>
<path fill="#EEEDEE" opacity="1.000000" stroke="none" 
	d="
M549.841431,428.386475 
	C552.257141,424.758240 551.216919,421.440460 549.631897,418.219666 
	C549.001282,416.938202 547.950623,415.863403 547.061462,414.338989 
	C552.901062,415.972046 553.470520,421.825653 555.642029,426.365692 
	C556.017273,427.150208 553.542603,429.297882 552.053528,430.963013 
	C551.118896,430.305756 550.515198,429.501465 549.841431,428.386475 
z"/>
<path fill="#ECD17D" opacity="1.000000" stroke="none" 
	d="
M225.487457,482.896057 
	C226.087799,482.538696 227.154297,482.240356 228.564514,481.909241 
	C230.203201,481.771942 231.636353,481.992096 232.770447,481.509491 
	C239.477707,478.655151 245.945282,480.149658 252.703842,482.521484 
	C243.980728,482.811401 234.967163,482.883240 225.487457,482.896057 
z"/>
<path fill="#D2BA66" opacity="1.000000" stroke="none" 
	d="
M340.126404,414.693115 
	C339.154694,415.280121 338.328308,415.530640 337.185364,415.875458 
	C339.672180,410.056732 342.475525,404.143738 345.581055,398.039886 
	C344.012726,403.351562 342.142242,408.854095 340.126404,414.693115 
z"/>
<path fill="#D2BA66" opacity="1.000000" stroke="none" 
	d="
M374.340149,376.928345 
	C375.480927,374.100525 376.922180,371.106995 378.713409,368.068542 
	C377.589111,370.936615 376.114868,373.849640 374.340149,376.928345 
z"/>
<path fill="#D2BA66" opacity="1.000000" stroke="none" 
	d="
M378.934082,364.349304 
	C378.937714,363.512299 378.966248,363.088898 379.002319,362.347382 
	C380.073425,362.086853 381.137024,362.144501 382.443146,362.313477 
	C381.663177,364.190430 380.640625,365.956055 379.325745,367.893982 
	C379.008606,366.965179 378.983795,365.864075 378.934082,364.349304 
z"/>
<path fill="#D2BA66" opacity="1.000000" stroke="none" 
	d="
M351.592529,385.939453 
	C351.231812,387.518555 350.564941,389.254059 349.508118,391.024170 
	C349.840881,389.404480 350.563629,387.750122 351.592529,385.939453 
z"/>
<path fill="#D2BA66" opacity="1.000000" stroke="none" 
	d="
M335.654053,417.941956 
	C336.156677,419.884216 337.535553,422.474304 333.487122,422.986847 
	C333.880035,421.363617 334.614258,419.734680 335.654053,417.941956 
z"/>
<path fill="#D2BA66" opacity="1.000000" stroke="none" 
	d="
M232.289307,339.574097 
	C232.401840,339.190918 232.596222,339.378235 232.698181,339.471191 
	C232.835602,341.746368 232.871048,343.928650 232.686890,346.545166 
	C232.205368,346.989838 231.944870,346.974945 231.685822,346.934814 
	C231.849472,344.608948 232.013107,342.283112 232.289307,339.574097 
z"/>
<path fill="#050506" opacity="1.000000" stroke="none" 
	d="
M405.098816,515.899902 
	C404.633698,514.859924 404.447479,513.655823 404.385986,512.161255 
	C404.799713,513.159119 405.088715,514.447388 405.098816,515.899902 
z"/>
<path fill="#D2BA66" opacity="1.000000" stroke="none" 
	d="
M348.629822,391.957764 
	C348.130005,393.749359 347.316010,395.711487 346.163300,397.798981 
	C346.654938,395.992310 347.485291,394.060272 348.629822,391.957764 
z"/>
<path fill="#E4C047" opacity="1.000000" stroke="none" 
	d="
M294.949890,397.725647 
	C294.010529,396.884583 293.030518,395.709839 292.264221,394.219238 
	C292.477997,393.903351 292.924744,393.941650 292.924744,393.941650 
	C293.586212,395.091766 294.247711,396.241852 294.949890,397.725647 
z"/>
<path fill="#9B7F20" opacity="1.000000" stroke="none" 
	d="
M385.977325,378.148499 
	C385.955780,378.326874 385.934235,378.505280 385.912598,378.956238 
	C385.802643,380.315155 385.692749,381.401489 385.367340,382.741486 
	C385.023376,381.520813 384.894928,380.046539 385.114807,378.336853 
	C385.634552,378.117157 385.805939,378.132843 385.977325,378.148499 
z"/>
<path fill="#EEEDEE" opacity="1.000000" stroke="none" 
	d="
M524.339844,482.877899 
	C524.861145,482.385773 525.696899,481.915710 526.739502,481.667603 
	C526.182373,482.226349 525.418274,482.563141 524.339844,482.877899 
z"/>
<path fill="#9B7F20" opacity="1.000000" stroke="none" 
	d="
M384.401855,371.409149 
	C384.578278,372.889923 384.656036,374.212677 384.641846,375.938782 
	C384.307190,374.780029 384.064484,373.217896 383.900574,371.361206 
	C383.979340,371.066711 384.303192,371.251099 384.401855,371.409149 
z"/>
<path fill="#E4C047" opacity="1.000000" stroke="none" 
	d="
M231.440170,347.154816 
	C231.944870,346.974945 232.205368,346.989838 232.661438,346.972229 
	C232.886383,347.144012 232.917236,347.323029 232.964996,348.100677 
	C232.674225,349.465607 232.366531,350.231873 232.058838,350.998108 
	C231.922256,350.161774 231.785706,349.325439 231.424835,348.261688 
	C231.198532,347.814423 231.196518,347.594604 231.440170,347.154816 
z"/>
<path fill="#E4C047" opacity="1.000000" stroke="none" 
	d="
M315.798889,437.740540 
	C315.176941,437.209961 314.565796,436.349670 313.989868,435.175781 
	C314.619965,435.711700 315.214844,436.561249 315.798889,437.740540 
z"/>
<path fill="#E4C047" opacity="1.000000" stroke="none" 
	d="
M257.035675,377.961578 
	C257.035675,377.961578 256.646851,377.979645 256.457428,378.023804 
	C255.846619,377.284821 255.425217,376.501709 254.978821,375.381714 
	C254.953827,375.044800 255.020554,374.981537 255.333664,374.994415 
	C256.094543,375.319061 256.542328,375.630829 256.994812,376.279572 
	C257.011566,377.064880 257.023621,377.513245 257.035675,377.961578 
z"/>
<path fill="#050506" opacity="1.000000" stroke="none" 
	d="
M404.964844,509.955078 
	C405.136902,509.320160 405.648468,508.674805 406.582825,508.114136 
	C406.438477,508.780762 405.871399,509.362732 404.964844,509.955078 
z"/>
<path fill="#BA961B" opacity="1.000000" stroke="none" 
	d="
M292.935242,393.678528 
	C292.924744,393.941650 292.477997,393.903351 292.255188,393.879089 
	C291.981140,393.493744 291.929901,393.132599 291.901245,392.499756 
	C292.264435,392.623871 292.605072,393.019653 292.935242,393.678528 
z"/>
<path fill="#E4C047" opacity="1.000000" stroke="none" 
	d="
M362.166626,365.181824 
	C362.600891,365.247894 362.685760,365.536560 362.326355,365.987366 
	C361.882843,365.854462 361.861237,365.606110 362.166626,365.181824 
z"/>
<path fill="#050506" opacity="1.000000" stroke="none" 
	d="
M453.007507,491.994263 
	C453.128754,492.130768 453.242676,492.272980 453.356598,492.415161 
	C453.272247,492.369171 453.187897,492.323151 453.046143,492.145844 
	C452.988770,492.014557 453.000183,492.000000 453.007507,491.994263 
z"/>
<path fill="#D2BA66" opacity="1.000000" stroke="none" 
	d="
M336.677490,415.974670 
	C336.821442,416.186615 336.692383,416.502289 336.349304,416.969971 
	C336.225037,416.774139 336.314758,416.426270 336.677490,415.974670 
z"/>
<path fill="#E4C047" opacity="1.000000" stroke="none" 
	d="
M362.639526,366.467407 
	C362.749023,366.504364 362.869965,366.584778 362.809509,366.631409 
	C362.628174,366.597626 362.650940,366.510803 362.639526,366.467407 
z"/>
<path fill="#E4C047" opacity="1.000000" stroke="none" 
	d="
M385.877136,377.893433 
	C385.805939,378.132843 385.634552,378.117157 385.210022,378.050995 
	C384.918732,377.823517 384.880585,377.646576 384.898315,377.203186 
	C385.228485,377.170624 385.502716,377.404510 385.877136,377.893433 
z"/>
<path fill="#EEEDEE" opacity="1.000000" stroke="none" 
	d="
M555.527466,435.545288 
	C555.475403,435.575439 555.579468,435.515167 555.527466,435.545288 
z"/>
<path fill="#E1B82F" opacity="1.000000" stroke="none" 
	d="
M245.024506,376.592438 
	C241.770950,383.988586 238.432159,390.954010 235.386749,398.045441 
	C234.893143,399.194794 235.886459,400.904419 235.876404,402.352905 
	C235.825272,409.726196 235.670151,417.098785 235.265289,424.750641 
	C230.252213,423.925873 228.970306,421.512115 230.458740,417.221710 
	C231.247360,414.948547 231.733475,412.510773 231.952728,410.110443 
	C232.735718,401.538605 233.058044,392.912292 234.202225,384.393555 
	C234.533096,381.930054 236.919418,379.670135 238.574448,377.476074 
	C240.471954,374.960510 242.604141,372.621979 245.359238,369.344116 
	C245.246078,371.751312 245.141418,373.977448 245.024506,376.592438 
z"/>
<path fill="#E1B82F" opacity="1.000000" stroke="none" 
	d="
M232.047241,351.373993 
	C232.366531,350.231873 232.674225,349.465607 232.986664,348.372253 
	C234.928528,348.360931 236.859894,348.718781 238.803940,348.983734 
	C242.881882,349.539551 245.157059,347.331940 245.829285,343.673981 
	C246.774307,338.531342 247.245453,333.303223 248.013824,328.125671 
	C248.262466,326.450165 248.808594,324.818817 249.616699,323.082031 
	C256.038940,332.448212 253.319107,345.244324 245.110184,353.233032 
	C240.464218,357.754395 237.051971,356.921326 232.359009,354.042389 
	C232.017532,353.253265 232.026596,352.501587 232.047241,351.373993 
z"/>
<path fill="#E1B82F" opacity="1.000000" stroke="none" 
	d="
M256.990082,375.942596 
	C256.542328,375.630829 256.094543,375.319061 255.367172,374.962952 
	C254.584488,370.652527 255.214600,366.906342 258.583588,363.662140 
	C259.942291,362.353668 260.837799,359.785156 260.719574,357.865509 
	C260.338470,351.677826 263.080566,350.031860 268.797058,351.748169 
	C269.293213,353.740723 269.598785,355.486420 269.619568,357.754944 
	C268.222382,360.290039 266.674896,362.183044 266.083893,364.338287 
	C264.651215,369.563354 263.001617,374.397522 256.990082,375.942596 
z"/>
<path fill="#E1B82F" opacity="1.000000" stroke="none" 
	d="
M217.335693,470.971191 
	C217.300644,469.604980 217.620270,468.178192 217.993683,466.388306 
	C218.994461,465.248016 220.613708,464.587311 220.772034,463.673492 
	C221.458511,459.711578 221.889709,455.770294 226.269836,453.951599 
	C225.304749,446.726440 230.989014,441.966888 232.927856,435.836273 
	C233.803329,433.067993 233.859222,430.040527 234.644791,427.052551 
	C234.922318,431.693237 235.833405,436.704559 234.546112,441.067200 
	C232.190872,449.048981 228.002655,456.488556 225.628525,464.466583 
	C224.257156,469.075012 219.533142,467.868561 217.335693,470.971191 
z"/>
<path fill="#E1B82F" opacity="1.000000" stroke="none" 
	d="
M250.935013,320.739075 
	C250.241409,320.540100 249.528610,320.012085 248.922943,319.234802 
	C249.658646,319.460388 250.287231,319.935211 250.935013,320.739075 
z"/>
<path fill="#E1B82F" opacity="1.000000" stroke="none" 
	d="
M248.893341,318.765015 
	C248.673019,318.899841 248.402695,318.720520 248.091370,318.218903 
	C248.306076,318.098694 248.570404,318.283447 248.893341,318.765015 
z"/>
<path fill="#C6A323" opacity="1.000000" stroke="none" 
	d="
M256.994812,376.279572 
	C263.001617,374.397522 264.651215,369.563354 266.083893,364.338287 
	C266.674896,362.183044 268.222382,360.290039 269.662384,358.133423 
	C271.165894,364.232544 270.366486,369.932800 265.934814,374.909607 
	C265.012360,375.945557 264.905792,377.811127 264.674988,379.332581 
	C264.413513,381.056091 264.435455,382.822662 264.294525,385.254395 
	C261.518036,382.347382 259.577820,380.315918 257.336609,378.122986 
	C257.023621,377.513245 257.011566,377.064880 256.994812,376.279572 
z"/>
<path fill="#C6A323" opacity="1.000000" stroke="none" 
	d="
M390.491455,417.009216 
	C390.512268,414.608856 390.713226,412.180969 390.928589,409.337036 
	C396.847321,409.013367 400.738098,412.738983 404.322632,416.691559 
	C406.899750,419.533264 408.986847,422.819366 411.647461,425.938354 
	C412.351379,428.683502 412.700348,431.397522 413.067566,434.510864 
	C413.297180,450.668121 406.899689,463.216797 394.275757,472.935425 
	C393.938873,470.601318 393.957367,468.246368 394.352905,465.443176 
	C396.779907,463.024200 398.867157,461.090485 400.873535,459.076263 
	C409.875977,450.038544 412.061768,437.217987 405.995941,426.174561 
	C402.879120,420.500000 398.240845,416.426208 391.036041,416.972076 
	C391.036041,416.972076 390.671600,416.981628 390.491455,417.009216 
z"/>
<path fill="#050506" opacity="1.000000" stroke="none" 
	d="
M483.183044,499.047211 
	C484.716797,505.845184 483.224731,507.361633 475.988892,506.630280 
	C475.988892,502.944824 475.988892,499.235443 475.988892,493.571014 
	C479.026245,495.778351 481.023010,497.229462 483.183044,499.047211 
z"/>
<path fill="#050506" opacity="1.000000" stroke="none" 
	d="
M439.747955,517.813416 
	C430.761597,513.563538 428.566223,503.593811 434.479553,497.967682 
	C438.119019,494.504974 444.291565,493.834534 448.674500,496.536133 
	C453.051727,499.234222 455.343018,505.678711 453.821747,511.013245 
	C452.547668,515.480957 448.748779,517.950012 443.122833,517.959290 
	C442.128479,517.960938 441.134094,517.937866 439.747955,517.813416 
z"/>
<path fill="#050506" opacity="1.000000" stroke="none" 
	d="
M325.364441,517.974609 
	C317.404480,516.824036 314.165802,507.940033 315.161438,503.520325 
	C316.510132,497.533295 322.112854,494.064667 328.746704,495.032349 
	C334.561096,495.880463 338.386780,501.584198 337.977997,508.795441 
	C337.654510,514.502258 333.725586,517.872620 327.273956,517.974182 
	C326.776062,517.981995 326.277863,517.969727 325.364441,517.974609 
z"/>
<path fill="#050506" opacity="1.000000" stroke="none" 
	d="
M404.310272,500.209259 
	C404.397827,498.320862 404.485168,496.882355 404.569061,495.500061 
	C409.642456,495.046173 412.632324,497.145020 412.952332,501.095642 
	C413.250763,504.779480 410.242950,506.884674 404.310028,506.978180 
	C404.310028,504.870697 404.310028,502.764923 404.310272,500.209259 
z"/>
<path fill="#BA961B" opacity="1.000000" stroke="none" 
	d="
M278.999390,416.000427 
	C279.117096,416.136505 279.235413,416.272095 279.353729,416.407715 
	C279.271881,416.359955 279.190033,416.312225 279.054504,416.131622 
	C279.000793,415.998779 279.000000,416.000000 278.999390,416.000427 
z"/>
<path fill="#CCCBD0" opacity="1.000000" stroke="none" 
	d="
M557.004517,454.996429 
	C556.888550,454.858643 556.768005,454.724426 556.647522,454.590210 
	C556.729980,454.638763 556.812500,454.687317 556.944214,454.872192 
	C556.993530,455.008514 557.000000,455.000000 557.004517,454.996429 
z"/>
<path fill="#E1B82F" opacity="1.000000" stroke="none" 
	d="
M391.024384,417.372498 
	C398.240845,416.426208 402.879120,420.500000 405.995941,426.174561 
	C412.061768,437.217987 409.875977,450.038544 400.873535,459.076263 
	C398.867157,461.090485 396.779907,463.024200 394.360596,465.000549 
	C393.988861,461.973328 393.986389,458.940552 394.371368,455.445984 
	C396.690582,452.411163 398.622375,449.838165 400.662048,447.121521 
	C400.689758,447.143707 401.516785,447.806610 403.109070,449.082825 
	C403.109070,443.856293 402.774017,439.554993 403.190338,435.327667 
	C403.764313,429.499146 398.555237,424.535461 392.958069,426.033447 
	C392.309631,423.279938 391.661163,420.526459 391.024384,417.372498 
z"/>
<path fill="#E4C047" opacity="1.000000" stroke="none" 
	d="
M392.959656,426.475220 
	C398.555237,424.535461 403.764313,429.499146 403.190338,435.327667 
	C402.774017,439.554993 403.109070,443.856293 403.109070,449.082825 
	C401.516785,447.806610 400.689758,447.143707 400.662048,447.121521 
	C398.622375,449.838165 396.690582,452.411163 394.374542,454.991760 
	C393.647278,445.638550 393.304260,436.277771 392.959656,426.475220 
z"/>
</svg>